<?xml version="1.0" encoding="iso-8859-1"?>
<!-- Generator: Adobe Illustrator 19.0.0, SVG Export Plug-In . SVG Version: 6.00 Build 0)  -->
<svg version="1.1" id="Layer_1" xmlns="http://www.w3.org/2000/svg" xmlns:xlink="http://www.w3.org/1999/xlink" x="0px" y="0px"
	 viewBox="0 0 512 512" style="enable-background:new 0 0 512 512;" xml:space="preserve">
<circle style="fill:#34495E;" cx="256" cy="256" r="256"/>
<path style="fill:#203549;" d="M286.758,510.098c110.4-13.225,199.188-96.66,220.383-204.411L385.718,184.243
	c-0.069-0.069-0.105-0.105-0.148-0.141l-3.141-3.146c-15.473-14.595-38.551-23.852-64.371-23.852
	c-16.312,0-31.521,3.694-44.431,10.135c-15.506-6.474-33.101-10.135-51.786-10.135c-61.916,0-112.128,40.018-112.128,89.341
	c0,21.028,9.216,39.654,24.287,55.562c6.103,6.436,9.068,15.578,9.068,25.088c0,10.865-4.388,20.698-11.517,27.789L286.758,510.098z
	"/>
<path style="fill:#FFFFFF;" d="M318.062,157.112c46.515,0,84.221,30.044,84.221,67.113c0,15.759-6.943,29.757-18.258,41.733
	c-4.559,4.805-6.802,11.668-6.802,18.829c0,8.148,3.315,15.534,8.66,20.872c-13.153-2.058-24.356-10.058-30.743-21.161
	c-11.185,4.375-23.762,6.825-37.079,6.825c-46.492,0-84.204-30.044-84.204-67.1C233.861,187.156,271.57,157.112,318.062,157.112z"/>
<path style="fill:#C1D354;" d="M221.837,157.112c-61.921,0-112.12,40.003-112.12,89.347c0,21.007,9.236,39.634,24.3,55.555
	c6.075,6.441,9.068,15.562,9.068,25.088c0,10.857-4.419,20.675-11.533,27.784c17.516-2.744,32.42-13.391,40.937-28.163
	c14.897,5.829,31.639,9.103,49.349,9.103c61.926,0,112.133-40.005,112.133-89.364C333.97,197.117,283.763,157.112,221.837,157.112z"
	/>
<g>
	<path style="fill:#DBEBA0;" d="M127.055,254.902c-2.465,0-4.531-1.874-4.726-4.362c-0.1-1.567-0.148-2.872-0.148-4.081
		c0-5.499,0.763-11.005,2.284-16.384c0.709-2.514,3.315-3.953,5.829-3.244c2.519,0.701,3.976,3.315,3.259,5.829
		c-1.277,4.524-1.923,9.172-1.923,13.801c0,0.983,0.044,2.058,0.133,3.372c0.197,2.627-1.764,4.89-4.362,5.064
		C127.288,254.902,127.16,254.902,127.055,254.902z"/>
	<path style="fill:#DBEBA0;" d="M135.575,221.156c-0.837,0-1.679-0.225-2.452-0.681c-2.235-1.362-2.941-4.262-1.587-6.49
		c4.705-7.718,11.018-14.764,18.78-20.956c3.625-2.88,7.542-5.571,11.699-7.985c2.258-1.329,5.148-0.568,6.469,1.677
		c1.316,2.255,0.556,5.164-1.69,6.461c-3.773,2.199-7.332,4.636-10.583,7.25c-6.902,5.478-12.483,11.699-16.591,18.47
		C138.719,220.349,137.162,221.156,135.575,221.156z"/>
</g>
<g>
</g>
<g>
</g>
<g>
</g>
<g>
</g>
<g>
</g>
<g>
</g>
<g>
</g>
<g>
</g>
<g>
</g>
<g>
</g>
<g>
</g>
<g>
</g>
<g>
</g>
<g>
</g>
<g>
</g>
</svg>
