<?xml version="1.0" ?><svg viewBox="0 0 512 512" xmlns="http://www.w3.org/2000/svg"><defs><style>.cls-1{fill:#ededed;}.cls-2{fill:#cacaca;}.cls-3{fill:#bebebe;}.cls-4{fill:#0071af;}.cls-5{fill:#6e6e6e;}.cls-6{fill:#575757;}.cls-7{fill:#00659d;}.cls-8{fill:#5ca4cc;}.cls-9{fill:#00b378;}.cls-10{fill:#bdecdc;}.cls-11{fill:#ee9b9b;}.cls-12{fill:#ea8383;}.cls-13{fill:#8c8c8c;}.cls-14{fill:#096;}.cls-15{fill:#00a16c;}.cls-16{fill:#006095;}.cls-17{fill:#5e5e5e;}.cls-18{fill:#4a4a4a;}.cls-19{fill:#c77070;}.cls-20{fill:#cb8484;}</style></defs><title/><g data-name="/ FLAT" id="_FLAT"><circle class="cls-1" cx="256" cy="256" r="232"/><path class="cls-2" d="M160.57861,467.56592A232.17865,232.17865,0,0,0,467.56592,160.57861,465.05529,465.05529,0,0,1,160.57861,467.56592Z"/><path class="cls-3" d="M248,24.15186V56h16V24.15186C261.343,24.062,258.679,24,256,24S250.657,24.062,248,24.15186Z"/><path class="cls-3" d="M414.322,86.36353l-19.97925,19.97924,11.31446,11.31446L425.63647,97.678Q420.17481,91.82813,414.322,86.36353Z"/><path class="cls-3" d="M487.84814,248H456v16h31.84814c.08985-2.657.15186-5.321.15186-8S487.938,250.657,487.84814,248Z"/><path class="cls-3" d="M394.34277,405.65723,414.322,425.63647q5.84985-5.46166,11.31445-11.31445l-19.97924-19.97925Z"/><path class="cls-3" d="M248,487.84814c2.657.08985,5.321.15186,8,.15186s5.343-.062,8-.15186V456H248Z"/><path class="cls-3" d="M86.36353,414.322q5.46166,5.84985,11.31445,11.31445l19.97925-19.97924-11.31446-11.31446Z"/><path class="cls-3" d="M24,256c0,2.679.062,5.343.15186,8H56V248H24.15186C24.062,250.657,24,253.321,24,256Z"/><path class="cls-3" d="M86.36353,97.678l19.97924,19.97925,11.31446-11.31446L97.678,86.36353Q91.82813,91.8252,86.36353,97.678Z"/><path class="cls-4" d="M408,240h-4.2998a32,32,0,1,0-55.4004,0H344a24,24,0,0,0,0,48h64a24,24,0,0,0,0-48Z"/><rect class="cls-5" height="80" rx="8" width="32" x="176" y="352"/><rect class="cls-5" height="80" rx="8" width="32" x="304" y="352"/><rect class="cls-6" height="32" width="96" x="208" y="376"/><path class="cls-7" d="M348.032,252.59614q-.31753-.31063-.62817-.62822a7.98908,7.98908,0,0,1,1.7588-12.47775h0a8.08765,8.08765,0,0,1,9.80432,1.41781q.06206.0625.12455.12454a8.08806,8.08806,0,0,1,1.41891,9.80365l0,0A7.98888,7.98888,0,0,1,348.032,252.59614Z"/><path class="cls-7" d="M385.38309,264h-.00037a7.99556,7.99556,0,0,1-7.5639-10.62177,32.15519,32.15519,0,0,1,10.10581-14.29792,7.99525,7.99525,0,0,1,12.53686,3.59063l.0002.00055a7.97863,7.97863,0,0,1-2.50086,8.86647,16.079,16.079,0,0,0-5.05016,7.14583A7.9787,7.9787,0,0,1,385.38309,264Z"/><polygon class="cls-8" points="405.657 322.343 376 292.687 346.343 322.343 357.657 333.657 368 323.314 368 360 384 360 384 323.314 394.343 333.657 405.657 322.343"/><path class="cls-9" d="M187.31371,284.68629l-38.62742,38.62742A16,16,0,0,1,137.37258,328H96a16,16,0,0,1-16-16V200a16,16,0,0,1,16-16h80a16,16,0,0,1,16,16v73.37258A16,16,0,0,1,187.31371,284.68629Z"/><rect class="cls-10" height="16" width="64" x="104" y="208"/><rect class="cls-10" height="16" width="64" x="104" y="240"/><rect class="cls-10" height="16" width="16" x="104" y="280"/><rect class="cls-11" height="16.00105" transform="translate(-32.84271 220.71068) rotate(-45)" width="96.16652" x="201.91674" y="141.99947"/><path class="cls-11" d="M288,80l-9.37261,9.37261a22.6274,22.6274,0,0,0-6.62741,16V128h22.62743a22.6274,22.6274,0,0,0,16-6.62741L320,112a22.6274,22.6274,0,0,0,0-32l0,0A22.6274,22.6274,0,0,0,288,80Z"/><path class="cls-12" d="M301.65723,178.34277,246.678,123.36353a36.342,36.342,0,0,0-5.02075-45.02076l-12-12L218.34277,77.65723l12,12A20.28255,20.28255,0,0,1,234.8374,111.523L209.65723,86.34277,198.34277,97.65723,223.523,122.8374a20.28255,20.28255,0,0,1-21.86572-4.49463l-12-12-11.31446,11.31446,12,12a36.32974,36.32974,0,0,0,45.02076,5.02075l54.97924,54.97925Z"/><path class="cls-13" d="M283.55322,239.76123l106.104-106.104-11.31446-11.31446-106.104,106.104A31.78776,31.78776,0,0,0,264,225.0127V216H248v9.0127a31.806,31.806,0,0,0-8.24121,3.43164l-10.10156-10.10157-11.31446,11.31446,10.10157,10.10156A31.806,31.806,0,0,0,225.0127,248H216v16h9.0127a31.806,31.806,0,0,0,3.43164,8.24121l-10.10157,10.10156,11.31446,11.31446,10.10156-10.10157A31.87675,31.87675,0,0,0,248,286.97V352h16V286.97a31.87675,31.87675,0,0,0,8.24121-3.41431l10.10156,10.10157,11.31446-11.31446-10.10157-10.10156A31.806,31.806,0,0,0,286.9873,264H296V248h-9.0127A31.78776,31.78776,0,0,0,283.55322,239.76123ZM256,272a16,16,0,1,1,16-16A16.01833,16.01833,0,0,1,256,272Z"/><path class="cls-14" d="M91.68628,327.395A15.98054,15.98054,0,0,0,96,328h41.37256a16.00034,16.00034,0,0,0,11.31372-4.68628l38.62744-38.62744A16.00075,16.00075,0,0,0,192,273.37256V216A112.01342,112.01342,0,0,1,91.68628,327.395Z"/><path class="cls-15" d="M148.68628,323.31372l38.62744-38.62744A15.97672,15.97672,0,0,0,190.5437,280H160a16.00016,16.00016,0,0,0-16,16v30.5437A15.97672,15.97672,0,0,0,148.68628,323.31372Z"/><path class="cls-16" d="M417.88281,242.13037a95.957,95.957,0,0,1-76.5437,45.71948A24.24,24.24,0,0,0,344,288h64a23.99931,23.99931,0,0,0,9.88281-45.86963Z"/><path class="cls-17" d="M304,416.001V424a8.00009,8.00009,0,0,0,8,8h16a8.00009,8.00009,0,0,0,8-8V360a7.99085,7.99085,0,0,0-.25073-1.95508A79.8827,79.8827,0,0,1,304,416.001Z"/><path class="cls-17" d="M176,416.001V424a8.00009,8.00009,0,0,0,8,8h16a8.00009,8.00009,0,0,0,8-8V360a7.99085,7.99085,0,0,0-.25073-1.95508A79.8827,79.8827,0,0,1,176,416.001Z"/><path class="cls-18" d="M272,408h32V376A32,32,0,0,1,272,408Z"/><path class="cls-19" d="M271.11914,170.43359l19.22363,19.22364,11.31446-11.31446-17.71338-17.71338A128.44588,128.44588,0,0,1,271.11914,170.43359Z"/><path class="cls-20" d="M288.97217,128h5.65527a22.62747,22.62747,0,0,0,16-6.62744L320,112a22.61529,22.61529,0,0,0,4.44458-25.64795A72.18471,72.18471,0,0,1,288.97217,128Z"/></g></svg>